#!OML:ASF G:\JayActor3\Patient Classification 1\Patient 1\Session 2\male.ASF
:FULLY-SPECIFIED
:DEGREES
2216
root 37.6626 15.3446 -7.00851 381.958 -88.1324 -1092.39
lowerback 17.1012 1.0646 -0.316053
upperback 10.3968 0.658374 0.874386
thorax 1.49707 0.000703506 0.988715
lowerneck 6.15015 -6.1299 -5.35894
upperneck -19.0834 -6.97813 14.8767
head -5.96259 -4.46093 6.1557
rclavicle 1.6201e-014 1.53064e-014
rhumerus -9.70964 6.31231 -71.0999
rradius 85.2815
rwrist 8.7618
rhand -44.13 16.4905
rfingers 7.12502
rthumb -16.9463 -12.7902
lclavicle 1.6201e-014 1.53064e-014
lhumerus -4.54559 -1.0418 63.7202
lradius 82.9306
lwrist 13.531
lhand -34.8477 19.7629
lfingers 7.12502
lthumb -7.99779 49.5916
rfemur -19.8888 -1.73335 23.5014
rtibia 64.1761
rfoot -21.574 16.1939
rtoes 10.2174
lfemur -53.772 16.2018 -37.796
ltibia 52.4602
lfoot -12.9759 14.5676
ltoes 4.66826
2217
root 37.6159 15.347 -7.00188 383.165 -88.1669 -1093.53
lowerback 17.1263 1.07247 -0.332731
upperback 10.3979 0.665235 0.849306
thorax 1.48519 0.00385193 0.970573
lowerneck 6.12867 -6.07072 -5.32823
upperneck -19.1488 -6.89841 14.8218
head -5.99197 -4.42194 6.1327
rclavicle -1.83876e-014 -2.98177e-015
rhumerus -9.68119 6.36969 -71.0992
rradius 85.3796
rwrist 8.7523
rhand -44.1252 16.4405
rfingers 7.12502
rthumb -16.9417 -12.8406
lclavicle -1.83876e-014 -2.98177e-015
lhumerus -4.31663 -1.14165 63.6184
lradius 82.9277
lwrist 13.5313
lhand -34.8658 19.7883
lfingers 7.12502
lthumb -8.01524 49.6163
rfemur -19.8073 -1.75515 23.4618
rtibia 64.1468
rfoot -21.2173 16.3176
rtoes 10.4213
lfemur -53.7299 16.1388 -37.7096
ltibia 52.6215
lfoot -13.2029 14.6651
ltoes 4.50248
2218
root 37.569 15.3492 -6.99548 384.175 -88.1805 -1094.47
lowerback 17.1527 1.0751 -0.345185
upperback 10.3965 0.666239 0.826221
thorax 1.47012 0.0043744 0.953038
lowerneck 6.10068 -6.01324 -5.30308
upperneck -19.2065 -6.82092 14.7745
head -6.01692 -4.38389 6.11238
rclavicle 3.28989e-014 4.45278e-014
rhumerus -9.66439 6.42455 -71.0954
rradius 85.4708
rwrist 8.74081
rhand -44.1067 16.3998
rfingers 7.12502
rthumb -16.9239 -12.8828
lclavicle 3.28989e-014 4.45278e-014
lhumerus -4.08873 -1.24761 63.5215
lradius 82.9222
lwrist 13.5192
lhand -34.8947 19.8234
lfingers 7.12502
lthumb -8.04317 49.6504
rfemur -19.7213 -1.77425 23.4237
rtibia 64.117
rfoot -20.8594 16.4345
rtoes 10.5983
lfemur -53.6778 16.0688 -37.6276
ltibia 52.7756
lfoot -13.429 14.7583
ltoes 4.34058
2219
root 37.5223 15.3513 -6.98951 385.128 -88.183 -1095.35
lowerback 17.1763 1.07721 -0.357437
upperback 10.3909 0.667186 0.805659
thorax 1.45182 0.00505323 0.938061
lowerneck 6.07055 -5.95652 -5.28152
upperneck -19.2587 -6.74434 14.7325
head -6.03916 -4.34621 6.09394
rclavicle -1.03368e-014 -9.24349e-015
rhumerus -9.66088 6.47484 -71.0885
rradius 85.5564
rwrist 8.7369
rhand -44.0798 16.3675
rfingers 7.12502
rthumb -16.898 -12.9173
lclavicle -1.03368e-014 -9.24349e-015
lhumerus -3.86312 -1.35852 63.4305
lradius 82.9161
lwrist 13.4997
lhand -34.9316 19.8596
lfingers 7.12502
lthumb -8.07877 49.6852
rfemur -19.6426 -1.77888 23.3916
rtibia 64.089
rfoot -20.5032 16.5341
rtoes 10.7306
lfemur -53.6291 16.0031 -37.5516
ltibia 52.9252
lfoot -13.6563 14.8446
ltoes 4.18452
2220
root 37.4752 15.3534 -6.98401 385.606 -88.166 -1095.76
lowerback 17.2012 1.07456 -0.376346
upperback 10.3854 0.661144 0.786746
thorax 1.43316 0.00194047 0.929649
lowerneck 6.03368 -5.90046 -5.26483
upperneck -19.2989 -6.66888 14.6963
head -6.0558 -4.30863 6.07718
rclavicle 5.96354e-016 -7.35503e-015
rhumerus -9.66704 6.52207 -71.0786
rradius 85.636
rwrist 8.7417
rhand -44.0529 16.3447
rfingers 7.12502
rthumb -16.8722 -12.9424
lclavicle 5.96354e-016 -7.35503e-015
lhumerus -3.64155 -1.46935 63.3462
lradius 82.9132
lwrist 13.4779
lhand -34.983 19.912
lfingers 7.12502
lthumb -8.12838 49.7357
rfemur -19.5523 -1.78651 23.3567
rtibia 64.0604
rfoot -20.1513 16.6226
rtoes 10.8435
lfemur -53.5647 15.9404 -37.4868
ltibia 53.0699
lfoot -13.8884 14.9157
ltoes 4.03507
